<svg width="203" height="206" viewBox="0 0 203 206" fill="none" xmlns="http://www.w3.org/2000/svg">
<ellipse cx="101.5" cy="103" rx="101.5" ry="103" fill="#006A0C"/>
<circle cx="92" cy="94" r="88" fill="#00AA13"/>
<ellipse cx="42.749" cy="51.0889" rx="39.6078" ry="18.4382" transform="rotate(-49.4833 42.749 51.0889)" fill="white"/>
<path d="M105.455 64.3339L102.76 55.4605C102.228 53.7189 99.7717 53.7189 99.2583 55.4605L96.545 64.3339H88.3867C86.6083 64.3339 85.875 66.6255 87.3233 67.6522L93.9967 72.4189L91.375 80.8705C90.8433 82.5755 92.8233 83.9505 94.235 82.8689L101 77.7355L107.765 82.8872C109.177 83.9689 111.157 82.5939 110.625 80.8889L108.003 72.4372L114.677 67.6705C116.125 66.6255 115.392 64.3522 113.613 64.3522H105.455V64.3339Z" fill="#50E22B"/>
<path d="M146.455 93.3339L143.76 84.4605C143.228 82.7189 140.772 82.7189 140.258 84.4605L137.545 93.3339H129.387C127.608 93.3339 126.875 95.6255 128.323 96.6522L134.997 101.419L132.375 109.871C131.843 111.576 133.823 112.951 135.235 111.869L142 106.736L148.765 111.887C150.177 112.969 152.157 111.594 151.625 109.889L149.003 101.437L155.677 96.6705C157.125 95.6255 156.392 93.3522 154.613 93.3522H146.455V93.3339Z" fill="#50E22B"/>
<path d="M65.455 92.3339L62.76 83.4605C62.2283 81.7189 59.7717 81.7189 59.2583 83.4605L56.545 92.3339H48.3867C46.6083 92.3339 45.875 94.6255 47.3233 95.6522L53.9967 100.419L51.375 108.871C50.8433 110.576 52.8233 111.951 54.235 110.869L61 105.736L67.765 110.887C69.1767 111.969 71.1567 110.594 70.625 108.889L68.0033 100.437L74.6767 95.6705C76.125 94.6255 75.3917 92.3522 73.6133 92.3522H65.455V92.3339Z" fill="#50E22B"/>
<path d="M80.455 134.334L77.76 125.461C77.2283 123.719 74.7717 123.719 74.2583 125.461L71.545 134.334H63.3867C61.6083 134.334 60.875 136.626 62.3233 137.652L68.9967 142.419L66.375 150.871C65.8433 152.576 67.8233 153.951 69.235 152.869L76 147.736L82.765 152.887C84.1767 153.969 86.1567 152.594 85.625 150.889L83.0033 142.437L89.6767 137.671C91.125 136.626 90.3917 134.352 88.6133 134.352H80.455V134.334Z" fill="#50E22B"/>
<path d="M130.455 134.334L127.76 125.461C127.228 123.719 124.772 123.719 124.258 125.461L121.545 134.334H113.387C111.608 134.334 110.875 136.626 112.323 137.652L118.997 142.419L116.375 150.871C115.843 152.576 117.823 153.951 119.235 152.869L126 147.736L132.765 152.887C134.177 153.969 136.157 152.594 135.625 150.889L133.003 142.437L139.677 137.671C141.125 136.626 140.392 134.352 138.613 134.352H130.455V134.334Z" fill="#50E22B"/>
</svg>
